<svg width="24" height="24" viewBox="0 0 24 24" fill="none" xmlns="http://www.w3.org/2000/svg">
  <path d="M17 12H7C6.45 12 6 12.45 6 13C6 13.55 6.45 14 7 14H17C17.55 14 18 13.55 18 13C18 12.45 17.55 12 17 12Z" fill="#FF9800"/>
  <path d="M17 17H7C6.45 17 6 17.45 6 18C6 18.55 6.45 19 7 19H17C17.55 19 18 18.55 18 18C18 17.45 17.55 17 17 17Z" fill="#FF9800"/>
  <path d="M18 4H14V3C14 2.45 13.55 2 13 2H11C10.45 2 10 2.45 10 3V4H6C4.9 4 4 4.9 4 6V20C4 21.1 4.9 22 6 22H18C19.1 22 20 21.1 20 20V6C20 4.9 19.1 4 18 4ZM12 5C12.55 5 13 4.55 13 4C13 3.45 12.55 3 12 3C11.45 3 11 3.45 11 4C11 4.55 11.45 5 12 5ZM14 8H10C9.45 8 9 7.55 9 7C9 6.45 9.45 6 10 6H14C14.55 6 15 6.45 15 7C15 7.55 14.55 8 14 8Z" fill="#FF9800"/>
</svg>
