<svg t="1741441719719" class="icon" viewBox="0 0 1024 1024" version="1.1" xmlns="http://www.w3.org/2000/svg" p-id="2391"
     width="200" height="200">
    <path d="M582.71 60.35c-18.83-18.83-43.94-29.2-70.71-29.2-26.77 0-51.89 10.37-70.71 29.2l-281.48 281.5H864.2L582.71 60.35z"
          fill="#f3f3f3" p-id="2392"></path>
    <path d="M59.47 583.6L159.8 683.94h704.39L964.53 583.6c38.99-38.99 38.99-102.43 0-141.42L864.19 341.84H159.81L59.47 442.18c-38.98 38.99-38.98 102.43 0 141.42z"
          fill="#f3f3f3" p-id="2393"></path>
    <path d="M441.29 965.44c18.83 18.83 43.94 29.19 70.71 29.19s51.89-10.37 70.71-29.19l281.48-281.5H159.8l281.49 281.5z"
          fill="#f3f3f3" p-id="2394"></path>
    <path d="M964.53 442.18L582.71 60.35c-18.83-18.83-43.94-29.2-70.71-29.2-26.77 0-51.89 10.37-70.71 29.2L59.47 442.18c-38.99 38.99-38.99 102.43 0 141.42l381.81 381.84c18.83 18.83 43.94 29.19 70.71 29.19s51.89-10.37 70.71-29.19L964.53 583.6c38.98-38.99 38.98-102.43 0-141.42z m-28.29 113.14L554.43 937.15c-11.27 11.27-26.34 17.48-42.43 17.48s-31.16-6.21-42.43-17.48L87.76 555.32c-23.39-23.39-23.39-61.46 0-84.85L469.57 88.63c11.27-11.27 26.34-17.48 42.43-17.48s31.16 6.21 42.43 17.48l381.81 381.84c23.39 23.39 23.39 61.45 0 84.85z"
          fill="#333333" p-id="2395"></path>
    <path d="M687 492.89H532v-155c0-11.05-8.95-20-20-20s-20 8.95-20 20v155H337c-11.05 0-20 8.95-20 20s8.95 20 20 20h155v155c0 11.05 8.95 20 20 20s20-8.95 20-20v-155h155c11.05 0 20-8.95 20-20 0-11.04-8.95-20-20-20z"
          fill="#333333" p-id="2396"></path>
</svg>