<svg width="24" height="24" viewBox="0 0 24 24" fill="none" xmlns="http://www.w3.org/2000/svg">
  <path d="M19 14H5c-0.55 0-1-0.45-1-1s0.45-1 1-1h14c0.55 0 1 0.45 1 1s-0.45 1-1 1z" fill="#FF9800"/>
  <path d="M12 5c-0.55 0-1 0.45-1 1v12c0 0.55 0.45 1 1 1s1-0.45 1-1V6c0-0.55-0.45-1-1-1z" fill="#FF9800"/>
  <path d="M17.5 21h-11C4.47 21 3 19.53 3 17.5v-11C3 4.47 4.47 3 6.5 3h11c2.03 0 3.5 1.47 3.5 3.5v11c0 2.03-1.47 3.5-3.5 3.5zM6.5 5C5.57 5 5 5.57 5 6.5v11c0 0.93 0.57 1.5 1.5 1.5h11c0.93 0 1.5-0.57 1.5-1.5v-11c0-0.93-0.57-1.5-1.5-1.5h-11z" fill="#FF9800"/>
</svg>
