<svg t="1741441648322" class="icon" viewBox="0 0 1024 1024" version="1.1" xmlns="http://www.w3.org/2000/svg" p-id="2220"
     width="200" height="200">
    <path d="M976.85 213.96c0-55.73-46.47-101.07-103.6-101.07H110.44c-57.12 0-103.6 45.34-103.6 101.07v127.89h970V213.96z"
          fill="#F5FAFF" p-id="2221"></path>
    <path d="M976.85 683.94v-52.32c23.43-8.17 40.3-30.48 40.3-56.66V450.83c0-26.18-16.87-48.49-40.3-56.66v-52.32h-970v342.09h970z"
          fill="#DDEFFE" p-id="2222"></path>
    <path d="M6.85 811.82c0 55.73 46.47 101.07 103.6 101.07h762.81c57.12 0 103.6-45.34 103.6-101.07V683.94h-970v127.88z"
          fill="#C1E1FD" p-id="2223"></path>
    <path d="M976.85 394.17V213.96c0-55.73-46.47-101.07-103.6-101.07H110.44c-57.12 0-103.6 45.34-103.6 101.07v597.87c0 55.73 46.47 101.07 103.6 101.07h762.81c57.12 0 103.6-45.34 103.6-101.07V631.62c23.43-8.17 40.3-30.48 40.3-56.66V450.83c0-26.19-16.87-48.49-40.3-56.66z m-103.6 478.72H110.44c-35.07 0-63.6-27.39-63.6-61.07V213.96c0-33.67 28.53-61.07 63.6-61.07h762.81c35.07 0 63.6 27.39 63.6 61.07v176.87H700.34c-33.08 0-60 26.92-60 60v124.13c0 33.08 26.92 60 60 60h236.51v176.87c0 33.67-28.53 61.06-63.6 61.06z m103.9-297.94c0 11.03-8.97 20-20 20H700.34c-11.03 0-20-8.97-20-20V450.83c0-11.03 8.97-20 20-20h256.81c11.03 0 20 8.97 20 20v124.12z"
          fill="#333333" p-id="2224"></path>
</svg>