<?xml version="1.0" encoding="UTF-8"?>
<svg width="48px" height="48px" viewBox="0 0 48 48" version="1.1" xmlns="http://www.w3.org/2000/svg" xmlns:xlink="http://www.w3.org/1999/xlink">
    <title>日历图标-轻卡通</title>
    <defs>
        <linearGradient x1="0%" y1="0%" x2="100%" y2="100%" id="calendarGradient">
            <stop stop-color="#C5CAE9" offset="0%"></stop>
            <stop stop-color="#7986CB" offset="100%"></stop>
        </linearGradient>
    </defs>
    <g stroke="none" stroke-width="1" fill="none" fill-rule="evenodd">
        <circle fill="url(#calendarGradient)" cx="24" cy="24" r="20" filter="drop-shadow(0px 2px 4px rgba(0,0,0,0.1))"></circle>
        <path d="M14,16 L34,16 C35.1045695,16 36,16.8954305 36,18 L36,34 C36,35.1045695 35.1045695,36 34,36 L14,36 C12.8954305,36 12,35.1045695 12,34 L12,18 C12,16.8954305 12.8954305,16 14,16 Z" fill="#FFFFFF"></path>
        <path d="M12,20 L36,20 L36,22 L12,22 L12,20 Z" fill="#7986CB"></path>
        <path d="M16,12 L18,12 L18,18 L16,18 L16,12 Z" fill="#FFFFFF"></path>
        <path d="M30,12 L32,12 L32,18 L30,18 L30,12 Z" fill="#FFFFFF"></path>
        <rect fill="#7986CB" x="16" y="24" width="4" height="4" rx="1"></rect>
        <rect fill="#7986CB" x="22" y="24" width="4" height="4" rx="1"></rect>
        <rect fill="#7986CB" x="28" y="24" width="4" height="4" rx="1"></rect>
        <rect fill="#7986CB" x="16" y="30" width="4" height="4" rx="1"></rect>
        <rect fill="#7986CB" x="22" y="30" width="4" height="4" rx="1"></rect>
        <rect fill="#7986CB" x="28" y="30" width="4" height="4" rx="1"></rect>
    </g>
</svg>
