<?xml version="1.0" encoding="UTF-8"?>
<svg width="24px" height="24px" viewBox="0 0 24 24" version="1.1" xmlns="http://www.w3.org/2000/svg" xmlns:xlink="http://www.w3.org/1999/xlink">
    <title>删除图标</title>
    <g stroke="none" stroke-width="1" fill="none" fill-rule="evenodd">
        <g transform="translate(2, 1)">
            <!-- 垃圾桶顶部 -->
            <path d="M4,4 L16,4 L16,7 C16,7.55228475 15.5522847,8 15,8 L5,8 C4.44771525,8 4,7.55228475 4,7 L4,4 Z" fill="#FFC1BB" rx="1"></path>
            
            <!-- 垃圾桶盖子 -->
            <path d="M3,3 L17,3 C17.5522847,3 18,3.44771525 18,4 L18,4 C18,4.55228475 17.5522847,5 17,5 L3,5 C2.44771525,5 2,4.55228475 2,4 L2,4 C2,3.44771525 2.44771525,3 3,3 Z" fill="#FFA8A0"></path>
            
            <!-- 垃圾桶提手 -->
            <path d="M7,2 L13,2 C13.5522847,2 14,2.44771525 14,3 L14,3 L6,3 L6,3 C6,2.44771525 6.44771525,2 7,2 Z" fill="#FFA8A0"></path>
            
            <!-- 垃圾桶主体 -->
            <path d="M5,7 L15,7 C15.5522847,7 16,7.44771525 16,8 L16,8 L15,20 C15,20.5522847 14.5522847,21 14,21 L6,21 C5.44771525,21 5,20.5522847 5,20 L4,8 L4,8 C4,7.44771525 4.44771525,7 5,7 Z" fill="#FFD6D1"></path>
            
            <!-- 删除线1 -->
            <path d="M8,10 C8.27614237,10 8.5,10.2238576 8.5,10.5 L8.5,17.5 C8.5,17.7761424 8.27614237,18 8,18 C7.72385763,18 7.5,17.7761424 7.5,17.5 L7.5,10.5 C7.5,10.2238576 7.72385763,10 8,10 Z" fill="#FFA8A0"></path>
            
            <!-- 删除线2 -->
            <path d="M10,10 C10.2761424,10 10.5,10.2238576 10.5,10.5 L10.5,17.5 C10.5,17.7761424 10.2761424,18 10,18 C9.72385763,18 9.5,17.7761424 9.5,17.5 L9.5,10.5 C9.5,10.2238576 9.72385763,10 10,10 Z" fill="#FFA8A0"></path>
            
            <!-- 删除线3 -->
            <path d="M12,10 C12.2761424,10 12.5,10.2238576 12.5,10.5 L12.5,17.5 C12.5,17.7761424 12.2761424,18 12,18 C11.7238576,18 11.5,17.7761424 11.5,17.5 L11.5,10.5 C11.5,10.2238576 11.7238576,10 12,10 Z" fill="#FFA8A0"></path>
        </g>
    </g>
</svg>
