<?xml version="1.0" encoding="UTF-8"?>
<svg width="48px" height="48px" viewBox="0 0 48 48" version="1.1" xmlns="http://www.w3.org/2000/svg" xmlns:xlink="http://www.w3.org/1999/xlink">
    <title>教育图标-轻卡通</title>
    <defs>
        <linearGradient x1="0%" y1="0%" x2="100%" y2="100%" id="educationGradient">
            <stop stop-color="#B39DDB" offset="0%"></stop>
            <stop stop-color="#9575CD" offset="100%"></stop>
        </linearGradient>
    </defs>
    <g stroke="none" stroke-width="1" fill="none" fill-rule="evenodd">
        <path d="M24,6 L44,16 L24,26 L4,16 L24,6 Z" fill="url(#educationGradient)" filter="drop-shadow(0px 2px 4px rgba(0,0,0,0.1))"></path>
        <path d="M10,18 L10,30 C10,30 17,36 24,36 C31,36 38,30 38,30 L38,18 L24,26 L10,18 Z" fill="#9575CD"></path>
        <path d="M38,18 L42,16 L42,28 L38,30 L38,18 Z" fill="#7E57C2"></path>
        <circle fill="#7E57C2" cx="24" cy="10" r="2"></circle>
        <path d="M24,36 L24,42 L30,39 L24,36 Z" fill="#B39DDB"></path>
        <path d="M24,36 L24,42 L18,39 L24,36 Z" fill="#B39DDB"></path>
    </g>
</svg>
