<?xml version="1.0" encoding="UTF-8"?>
<svg width="48px" height="48px" viewBox="0 0 48 48" version="1.1" xmlns="http://www.w3.org/2000/svg" xmlns:xlink="http://www.w3.org/1999/xlink">
    <title>空内容图标-轻卡通</title>
    <defs>
        <linearGradient x1="0%" y1="0%" x2="100%" y2="100%" id="emptyGradient">
            <stop stop-color="#E1F5FE" offset="0%"></stop>
            <stop stop-color="#B3E5FC" offset="100%"></stop>
        </linearGradient>
        <linearGradient x1="0%" y1="0%" x2="100%" y2="100%" id="boxGradient">
            <stop stop-color="#FFF9C4" offset="0%"></stop>
            <stop stop-color="#FFF176" offset="100%"></stop>
        </linearGradient>
        <linearGradient x1="0%" y1="0%" x2="100%" y2="100%" id="paperGradient">
            <stop stop-color="#FFFFFF" offset="0%"></stop>
            <stop stop-color="#F5F5F5" offset="100%"></stop>
        </linearGradient>
        <filter x="-25.0%" y="-25.0%" width="150.0%" height="150.0%" filterUnits="objectBoundingBox" id="shadowFilter">
            <feGaussianBlur stdDeviation="1" in="SourceAlpha" result="shadowBlurInner1"></feGaussianBlur>
            <feOffset dx="0" dy="1" in="shadowBlurInner1" result="shadowOffsetInner1"></feOffset>
            <feComposite in="shadowOffsetInner1" in2="SourceAlpha" operator="arithmetic" k2="-1" k3="1" result="shadowInnerInner1"></feComposite>
            <feColorMatrix values="0 0 0 0 0   0 0 0 0 0   0 0 0 0 0  0 0 0 0.2 0" type="matrix" in="shadowInnerInner1" result="shadowMatrixInner1"></feColorMatrix>
            <feMerge>
                <feMergeNode in="SourceGraphic"></feMergeNode>
                <feMergeNode in="shadowMatrixInner1"></feMergeNode>
            </feMerge>
        </filter>
    </defs>
    <g stroke="none" stroke-width="1" fill="none" fill-rule="evenodd">
        <circle fill="url(#emptyGradient)" cx="24" cy="24" r="20"></circle>
        
        <!-- 空盒子 -->
        <g transform="translate(10, 14)">
            <!-- 盒子底部 -->
            <path d="M2,10 L26,10 L28,20 L0,20 L2,10 Z" fill="url(#boxGradient)" filter="url(#shadowFilter)"></path>
            
            <!-- 盒子侧面 -->
            <path d="M0,20 L28,20 L28,16 C28,12 26,8 20,8 L8,8 C2,8 0,12 0,16 L0,20 Z" fill="url(#boxGradient)" filter="url(#shadowFilter)"></path>
            
            <!-- 盒子盖子（打开的） -->
            <path d="M8,8 L20,8 C20,8 18,3 14,3 C10,3 8,8 8,8 Z" fill="url(#boxGradient)" filter="url(#shadowFilter)"></path>
            
            <!-- 盒子盖子阴影 -->
            <path d="M8,8 L20,8 C20,8 18,10 14,10 C10,10 8,8 8,8 Z" fill="#E6C14F" opacity="0.3"></path>
            
            <!-- 飘出的纸张1 -->
            <g transform="translate(3, -5) rotate(15, 0, 0)">
                <rect x="0" y="0" width="12" height="16" rx="1" fill="url(#paperGradient)" filter="url(#shadowFilter)"></rect>
                <line x1="2" y1="4" x2="10" y2="4" stroke="#B0BEC5" stroke-width="1" stroke-linecap="round"></line>
                <line x1="2" y1="7" x2="8" y2="7" stroke="#B0BEC5" stroke-width="1" stroke-linecap="round"></line>
                <line x1="2" y1="10" x2="9" y2="10" stroke="#B0BEC5" stroke-width="1" stroke-linecap="round"></line>
            </g>
            
            <!-- 飘出的纸张2 -->
            <g transform="translate(15, -3) rotate(-10, 0, 0)">
                <rect x="0" y="0" width="12" height="16" rx="1" fill="url(#paperGradient)" filter="url(#shadowFilter)"></rect>
                <line x1="2" y1="4" x2="10" y2="4" stroke="#B0BEC5" stroke-width="1" stroke-linecap="round"></line>
                <line x1="2" y1="7" x2="8" y2="7" stroke="#B0BEC5" stroke-width="1" stroke-linecap="round"></line>
                <line x1="2" y1="10" x2="9" y2="10" stroke="#B0BEC5" stroke-width="1" stroke-linecap="round"></line>
                <circle cx="5" cy="13" r="1" fill="#B0BEC5"></circle>
            </g>
            
            <!-- 盒子内部阴影 -->
            <path d="M5,14 L23,14 L21,10 L7,10 L5,14 Z" fill="#E6C14F" opacity="0.3"></path>
            
            <!-- 装饰元素 -->
            <circle cx="14" cy="17" r="1.5" fill="#FFF176"></circle>
            <circle cx="20" cy="14" r="1" fill="#EEEEEE"></circle>
            <circle cx="8" cy="15" r="1" fill="#EEEEEE"></circle>
        </g>
        
        <!-- 装饰性云朵 -->
        <g transform="translate(36, 12)">
            <circle cx="0" cy="0" r="2" fill="#FFFFFF" opacity="0.8"></circle>
            <circle cx="-2" cy="0" r="2.5" fill="#FFFFFF" opacity="0.8"></circle>
            <circle cx="-4" cy="1" r="2" fill="#FFFFFF" opacity="0.8"></circle>
        </g>
        
        <g transform="translate(8, 10)">
            <circle cx="0" cy="0" r="1.5" fill="#FFFFFF" opacity="0.8"></circle>
            <circle cx="-2" cy="0" r="2" fill="#FFFFFF" opacity="0.8"></circle>
            <circle cx="-4" cy="1" r="1.5" fill="#FFFFFF" opacity="0.8"></circle>
        </g>
    </g>
</svg>
