<?xml version="1.0" encoding="UTF-8"?>
<svg width="48px" height="48px" viewBox="0 0 48 48" version="1.1" xmlns="http://www.w3.org/2000/svg" xmlns:xlink="http://www.w3.org/1999/xlink">
    <title>饮食图标-轻卡通</title>
    <defs>
        <linearGradient x1="0%" y1="0%" x2="100%" y2="100%" id="foodGradient">
            <stop stop-color="#FFCC80" offset="0%"></stop>
            <stop stop-color="#FFA726" offset="100%"></stop>
        </linearGradient>
    </defs>
    <g stroke="none" stroke-width="1" fill="none" fill-rule="evenodd">
        <circle fill="url(#foodGradient)" cx="24" cy="24" r="20" filter="drop-shadow(0px 2px 4px rgba(0,0,0,0.1))"></circle>
        <path d="M14,16 C14,14.8954305 14.8954305,14 16,14 L32,14 C33.1045695,14 34,14.8954305 34,16 L34,18 C34,20.209139 32.209139,22 30,22 L18,22 C15.790861,22 14,20.209139 14,18 L14,16 Z" fill="#FFFFFF"></path>
        <path d="M15,24 L33,24 C33.5522847,24 34,24.4477153 34,25 L34,32 C34,33.1045695 33.1045695,34 32,34 L16,34 C14.8954305,34 14,33.1045695 14,32 L14,25 C14,24.4477153 14.4477153,24 15,24 Z" fill="#FFFFFF"></path>
        <rect fill="#FFA726" x="18" y="26" width="12" height="2" rx="1"></rect>
        <rect fill="#FFA726" x="18" y="30" width="8" height="2" rx="1"></rect>
    </g>
</svg>
