<?xml version="1.0" encoding="UTF-8"?>
<svg width="24px" height="24px" viewBox="0 0 24 24" version="1.1" xmlns="http://www.w3.org/2000/svg">
    <g stroke="none" stroke-width="1" fill="none" fill-rule="evenodd">
        <path d="M8.1,2 L8.1,8.8 C8.1,9.6 7.5,10.2 6.7,10.3 L6.7,22 L4.5,22 L4.5,10.3 C3.7,10.2 3.1,9.6 3.1,8.8 L3.1,2 L4.3,2 L4.3,8 L5.4,8 L5.4,2 L6.6,2 L6.6,8 L7.7,8 L7.7,2 L8.1,2 Z M18.4,11 C19.9,11 21.1,9.8 21.1,8.3 L21.1,2 L19.9,2 L19.9,22 L17.7,22 L17.7,15 L16,15 L16,11.7 L16,8.8 C16,5.1 13.9,2 11.4,2 L11.4,22 L13.6,22 L13.6,11 L18.4,11 Z" fill="#000000"></path>
    </g>
</svg>
