<svg width="24" height="24" viewBox="0 0 24 24" fill="none" xmlns="http://www.w3.org/2000/svg">
  <path d="M3.5 18.49l6-6.01 4 4L22 7.31C22 7.31 22 7.31 22 7.31V18.49C22 19.88 20.88 21 19.5 21H5.5C4.12 21 3 19.88 3 18.49V18.49C3 18.49 3.5 18.49 3.5 18.49Z" fill="#2196F3"/>
  <path d="M3 8.5C3 7.12 4.12 6 5.5 6H19.5C20.88 6 22 7.12 22 8.5V9.31L13.5 17.69L9.5 13.72L3.5 19.69V18.5C3 18.5 3 8.5 3 8.5Z" fill="#2196F3" fill-opacity="0.6"/>
  <path d="M15 10.5C15 9.12 16.12 8 17.5 8C18.88 8 20 9.12 20 10.5C20 11.88 18.88 13 17.5 13C16.12 13 15 11.88 15 10.5Z" fill="#FFEB3B"/>
</svg>
