<?xml version="1.0" encoding="UTF-8"?>
<svg width="24px" height="24px" viewBox="0 0 24 24" version="1.1" xmlns="http://www.w3.org/2000/svg">
    <g stroke="none" stroke-width="1" fill="none" fill-rule="evenodd">
        <path d="M3,3 L21,3 C22.1,3 23,3.9 23,5 L23,19 C23,20.1 22.1,21 21,21 L3,21 C1.9,21 1,20.1 1,19 L1,5 C1,3.9 1.9,3 3,3 Z M3,5 L3,19 L21,19 L21,5 L3,5 Z M9,10 L11,10 L11,17 L9,17 L9,10 Z M5,12 L7,12 L7,17 L5,17 L5,12 Z M13,8 L15,8 L15,17 L13,17 L13,8 Z M17,6 L19,6 L19,17 L17,17 L17,6 Z" fill="#000000"></path>
    </g>
</svg>
