<?xml version="1.0" encoding="UTF-8"?>
<svg width="48px" height="48px" viewBox="0 0 48 48" version="1.1" xmlns="http://www.w3.org/2000/svg" xmlns:xlink="http://www.w3.org/1999/xlink">
    <title>投资图标-轻卡通</title>
    <defs>
        <linearGradient x1="0%" y1="0%" x2="100%" y2="100%" id="investmentGradient">
            <stop stop-color="#81D4FA" offset="0%"></stop>
            <stop stop-color="#29B6F6" offset="100%"></stop>
        </linearGradient>
    </defs>
    <g stroke="none" stroke-width="1" fill="none" fill-rule="evenodd">
        <circle fill="url(#investmentGradient)" cx="24" cy="24" r="20" filter="drop-shadow(0px 2px 4px rgba(0,0,0,0.1))"></circle>
        <path d="M14,28.4 L18,24.4 L24,30.4 L34,20.4 L34,26.4 L24,36.4 L14,26.4 L14,28.4 Z M34,18.4 L34,14.4 L30,14.4 L34,18.4 Z" fill="#FFFFFF"></path>
        <path d="M38,31 C38,32.1045695 37.1045695,33 36,33 L12,33 C10.8954305,33 10,32.1045695 10,31 L10,17 C10,15.8954305 10.8954305,15 12,15 L36,15 C37.1045695,15 38,15.8954305 38,17 L38,31 Z" fill="none" stroke="#FFFFFF" stroke-width="2"></path>
    </g>
</svg>
