<svg width="48" height="48" viewBox="0 0 48 48" fill="none" xmlns="http://www.w3.org/2000/svg">
  <circle cx="24" cy="24" r="18" fill="#F5F5F5" stroke="#333333" stroke-opacity="0.6" stroke-width="2"/>
  <path d="M24 13C19.0295 13 15 17.0295 15 22C15 24.8273 16.2441 28.1886 17.7272 31.0986C19.1876 33.9583 20.8708 36.3563 22.0422 37.6849C22.4421 38.1356 22.9874 38.5 24 38.5C25.0126 38.5 25.5579 38.1356 25.9578 37.6849C27.1292 36.3563 28.8124 33.9583 30.2728 31.0986C31.7559 28.1886 33 24.8273 33 22C33 17.0295 28.9705 13 24 13Z" fill="#F5F5F5" stroke="#333333" stroke-opacity="0.6" stroke-width="2" stroke-dasharray="3 2"/>
  <circle cx="24" cy="22" r="4" fill="#F5F5F5" stroke="#333333" stroke-opacity="0.6" stroke-width="1.5" stroke-dasharray="3 2"/>
  <path d="M16 16L32 32" stroke="#FF5500" stroke-opacity="0.8" stroke-width="2" stroke-linecap="round"/>
  <path d="M32 16L16 32" stroke="#FF5500" stroke-opacity="0.8" stroke-width="2" stroke-linecap="round"/>
</svg>
