<?xml version="1.0" encoding="UTF-8"?>
<svg width="48px" height="48px" viewBox="0 0 48 48" version="1.1" xmlns="http://www.w3.org/2000/svg" xmlns:xlink="http://www.w3.org/1999/xlink">
    <title>杂项图标-轻卡通</title>
    <defs>
        <linearGradient x1="0%" y1="0%" x2="100%" y2="100%" id="miscGradient">
            <stop stop-color="#B2DFDB" offset="0%"></stop>
            <stop stop-color="#80CBC4" offset="100%"></stop>
        </linearGradient>
    </defs>
    <g stroke="none" stroke-width="1" fill="none" fill-rule="evenodd">
        <circle fill="url(#miscGradient)" cx="24" cy="24" r="20" filter="drop-shadow(0px 2px 4px rgba(0,0,0,0.1))"></circle>
        <path d="M24,10 C25.1045695,10 26,10.8954305 26,12 C26,13.1045695 25.1045695,14 24,14 C22.8954305,14 22,13.1045695 22,12 C22,10.8954305 22.8954305,10 24,10 Z" fill="#FFFFFF"></path>
        <path d="M24,18 C25.1045695,18 26,18.8954305 26,20 C26,21.1045695 25.1045695,22 24,22 C22.8954305,22 22,21.1045695 22,20 C22,18.8954305 22.8954305,18 24,18 Z" fill="#FFFFFF"></path>
        <path d="M24,26 C25.1045695,26 26,26.8954305 26,28 C26,29.1045695 25.1045695,30 24,30 C22.8954305,30 22,29.1045695 22,28 C22,26.8954305 22.8954305,26 24,26 Z" fill="#FFFFFF"></path>
        <path d="M24,34 C25.1045695,34 26,34.8954305 26,36 C26,37.1045695 25.1045695,38 24,38 C22.8954305,38 22,37.1045695 22,36 C22,34.8954305 22.8954305,34 24,34 Z" fill="#FFFFFF"></path>
        <path d="M16,14 C17.1045695,14 18,14.8954305 18,16 C18,17.1045695 17.1045695,18 16,18 C14.8954305,18 14,17.1045695 14,16 C14,14.8954305 14.8954305,14 16,14 Z" fill="#FFFFFF"></path>
        <path d="M16,22 C17.1045695,22 18,22.8954305 18,24 C18,25.1045695 17.1045695,26 16,26 C14.8954305,26 14,25.1045695 14,24 C14,22.8954305 14.8954305,22 16,22 Z" fill="#FFFFFF"></path>
        <path d="M16,30 C17.1045695,30 18,30.8954305 18,32 C18,33.1045695 17.1045695,34 16,34 C14.8954305,34 14,33.1045695 14,32 C14,30.8954305 14.8954305,30 16,30 Z" fill="#FFFFFF"></path>
        <path d="M32,14 C33.1045695,14 34,14.8954305 34,16 C34,17.1045695 33.1045695,18 32,18 C30.8954305,18 30,17.1045695 30,16 C30,14.8954305 30.8954305,14 32,14 Z" fill="#FFFFFF"></path>
        <path d="M32,22 C33.1045695,22 34,22.8954305 34,24 C34,25.1045695 33.1045695,26 32,26 C30.8954305,26 30,25.1045695 30,24 C30,22.8954305 30.8954305,22 32,22 Z" fill="#FFFFFF"></path>
        <path d="M32,30 C33.1045695,30 34,30.8954305 34,32 C34,33.1045695 33.1045695,34 32,34 C30.8954305,34 30,33.1045695 30,32 C30,30.8954305 30.8954305,30 32,30 Z" fill="#FFFFFF"></path>
    </g>
</svg>
