<?xml version="1.0" encoding="UTF-8"?>
<svg width="24px" height="24px" viewBox="0 0 24 24" version="1.1" xmlns="http://www.w3.org/2000/svg">
    <g stroke="none" stroke-width="1" fill="none" fill-rule="evenodd">
        <path d="M12,2 C17.5,2 22,6.5 22,12 C22,17.5 17.5,22 12,22 C6.5,22 2,17.5 2,12 C2,6.5 6.5,2 12,2 Z M12,4 C7.6,4 4,7.6 4,12 C4,16.4 7.6,20 12,20 C16.4,20 20,16.4 20,12 C20,7.6 16.4,4 12,4 Z M12,10 C12.6,10 13,10.4 13,11 L13,17 C13,17.6 12.6,18 12,18 C11.4,18 11,17.6 11,17 L11,11 C11,10.4 11.4,10 12,10 Z M12,6 C12.6,6 13,6.4 13,7 C13,7.6 12.6,8 12,8 C11.4,8 11,7.6 11,7 C11,6.4 11.4,6 12,6 Z" fill="#000000"></path>
    </g>
</svg>
