<?xml version="1.0" encoding="UTF-8"?>
<svg width="24px" height="24px" viewBox="0 0 24 24" version="1.1" xmlns="http://www.w3.org/2000/svg">
    <g stroke="none" stroke-width="1" fill="none" fill-rule="evenodd">
        <path d="M9,1 L15,1 C16.1,1 17,1.9 17,3 L17,4 L19,4 C20.1,4 21,4.9 21,6 L21,20 C21,21.1 20.1,22 19,22 L5,22 C3.9,22 3,21.1 3,20 L3,6 C3,4.9 3.9,4 5,4 L7,4 L7,3 C7,1.9 7.9,1 9,1 Z M9,3 L9,5 L15,5 L15,3 L9,3 Z M5,6 L5,20 L19,20 L19,6 L5,6 Z M7,8 L10,8 L10,11 L7,11 L7,8 Z M12,8 L17,8 L17,11 L12,11 L12,8 Z M7,13 L10,13 L10,16 L7,16 L7,13 Z M12,13 L17,13 L17,16 L12,16 L12,13 Z" fill="#000000"></path>
    </g>
</svg>
