<svg width="48" height="48" viewBox="0 0 48 48" fill="none" xmlns="http://www.w3.org/2000/svg">
  <path d="M12 16H36L33 32H15L12 16Z" fill="#7ED321" fill-opacity="0.7" stroke="#333333" stroke-opacity="0.6" stroke-width="2" stroke-linejoin="round"/>
  <path d="M16 16C16 12 19.582 8 24 8C28.418 8 32 12 32 16" stroke="#333333" stroke-opacity="0.6" stroke-width="2"/>
  <path d="M18 38C18 39.105 17.105 40 16 40C14.895 40 14 39.105 14 38C14 36.895 14.895 36 16 36C17.105 36 18 36.895 18 38Z" fill="#F5F5F5" stroke="#333333" stroke-opacity="0.6" stroke-width="2"/>
  <path d="M34 38C34 39.105 33.105 40 32 40C30.895 40 30 39.105 30 38C30 36.895 30.895 36 32 36C33.105 36 34 36.895 34 38Z" fill="#F5F5F5" stroke="#333333" stroke-opacity="0.6" stroke-width="2"/>
</svg>
