<?xml version="1.0" encoding="UTF-8"?>
<svg width="24px" height="24px" viewBox="0 0 24 24" version="1.1" xmlns="http://www.w3.org/2000/svg">
    <g stroke="none" stroke-width="1" fill="none" fill-rule="evenodd">
        <path d="M7,18 C5.9,18 5,18.9 5,20 C5,21.1 5.9,22 7,22 C8.1,22 9,21.1 9,20 C9,18.9 8.1,18 7,18 Z M17,18 C15.9,18 15,18.9 15,20 C15,21.1 15.9,22 17,22 C18.1,22 19,21.1 19,20 C19,18.9 18.1,18 17,18 Z M7.2,14.8 L17.1,14.8 C17.8,14.8 18.4,14.4 18.7,13.7 L21.9,7.5 C22.3,6.8 21.8,5.8 21,5.8 L5.2,5.8 L4.3,3.7 C4.1,3.3 3.7,3 3.2,3 L1,3 C0.4,3 0,3.4 0,4 C0,4.6 0.4,5 1,5 L2.7,5 L6.4,13.3 L5.2,15.2 C4.8,15.9 5.3,16.8 6.1,16.8 L19,16.8 C19.6,16.8 20,16.4 20,15.8 C20,15.2 19.6,14.8 19,14.8 L7.2,14.8 Z" fill="#000000"></path>
    </g>
</svg>
