<?xml version="1.0" encoding="UTF-8"?>
<svg width="48px" height="48px" viewBox="0 0 48 48" version="1.1" xmlns="http://www.w3.org/2000/svg" xmlns:xlink="http://www.w3.org/1999/xlink">
    <title>购物图标-轻卡通</title>
    <defs>
        <linearGradient x1="0%" y1="0%" x2="100%" y2="100%" id="shoppingGradient">
            <stop stop-color="#F48FB1" offset="0%"></stop>
            <stop stop-color="#EC407A" offset="100%"></stop>
        </linearGradient>
    </defs>
    <g stroke="none" stroke-width="1" fill="none" fill-rule="evenodd">
        <circle fill="url(#shoppingGradient)" cx="24" cy="24" r="20" filter="drop-shadow(0px 2px 4px rgba(0,0,0,0.1))"></circle>
        <path d="M12,16 L15,16 L15,15 C15,11.6862915 18.1340068,9 22,9 C25.8659932,9 29,11.6862915 29,15 L29,16 L36,16 C37.1045695,16 38,16.8954305 38,18 L38,34 C38,35.1045695 37.1045695,36 36,36 L12,36 C10.8954305,36 10,35.1045695 10,34 L10,18 C10,16.8954305 10.8954305,16 12,16 Z" fill="#FFFFFF"></path>
        <path d="M19,16 L25,16 L25,15 C25,13.8954305 23.6568542,13 22,13 C20.3431458,13 19,13.8954305 19,15 L19,16 Z" fill="#EC407A"></path>
        <rect fill="#EC407A" x="16" y="20" width="16" height="2" rx="1"></rect>
        <rect fill="#EC407A" x="16" y="24" width="12" height="2" rx="1"></rect>
        <rect fill="#EC407A" x="16" y="28" width="8" height="2" rx="1"></rect>
    </g>
</svg>
