<svg t="1741442145469" class="icon" viewBox="0 0 1024 1024" version="1.1" xmlns="http://www.w3.org/2000/svg" p-id="2733"
     width="200" height="200">
    <path d="M472 117.89c-58.72 0-115.69 11.5-169.33 34.19-51.8 21.91-98.32 53.27-138.26 93.22-28.9 28.9-53.28 61.25-72.86 96.55H492V137.89c0-11.05-8.95-20-20-20zM952.81 303.56c-21.91-51.8-53.27-98.32-93.22-138.26s-86.46-71.31-138.26-93.22C667.69 49.39 610.72 37.89 552 37.89c-11.05 0-20 8.95-20 20v283.95h434.92a437.71 437.71 0 0 0-14.11-38.28z"
          fill="#f3f3f3" p-id="2734"></path>
    <path d="M887 533.5H492V341.85H91.54a434.673 434.673 0 0 0-20.35 41.72C48.5 437.2 37 494.17 37 552.89c0 44.94 6.75 88.86 20.08 131.05h829.83c13.27-41.98 20.02-85.69 20.08-130.41 0.01-5.31-2.1-10.4-5.85-14.16A19.94 19.94 0 0 0 887 533.5z"
          fill="#f3f3f3" p-id="2735"></path>
    <path d="M966.92 341.85H532V473.5c0 11.05 8.95 20 20 20h415c11.01 0 19.95-8.9 20-19.9v-0.7c0-44.95-6.75-88.87-20.08-131.05z"
          fill="#f3f3f3" p-id="2736"></path>
    <path d="M71.19 722.22c21.91 51.8 53.27 98.32 93.22 138.26 39.94 39.94 86.46 71.3 138.26 93.22 53.64 22.69 110.61 34.19 169.33 34.19 58.66 0 115.59-11.48 169.19-34.13 51.76-21.87 98.26-53.18 138.19-93.07 39.93-39.88 71.3-86.33 93.25-138.06a434.31 434.31 0 0 0 14.28-38.7H57.08c4.09 12.94 8.79 25.7 14.11 38.29z"
          fill="#f3f3f3" p-id="2737"></path>
    <path d="M887 533.5H492V137.89c0-11.05-8.95-20-20-20-58.72 0-115.69 11.5-169.33 34.19-51.8 21.91-98.32 53.27-138.26 93.22-39.94 39.94-71.31 86.46-93.22 138.26C48.5 437.2 37 494.17 37 552.89s11.5 115.69 34.19 169.33c21.91 51.8 53.27 98.32 93.22 138.26 39.94 39.94 86.46 71.3 138.26 93.22 53.64 22.69 110.61 34.19 169.33 34.19 58.66 0 115.59-11.48 169.19-34.13 51.76-21.87 98.26-53.18 138.19-93.07 39.93-39.88 71.3-86.33 93.25-138.06 22.72-53.56 34.28-110.46 34.37-169.11 0.01-5.31-2.1-10.4-5.85-14.16A20.012 20.012 0 0 0 887 533.5zM472 947.89c-217.8 0-395-177.2-395-395 0-211.1 166.44-384.06 375-394.5V553.5c0 11.05 8.95 20 20 20h394.46C855.7 781.71 682.77 947.89 472 947.89z"
          fill="#333333" p-id="2738"></path>
    <path d="M952.81 303.56c-21.91-51.8-53.27-98.32-93.22-138.26s-86.46-71.31-138.26-93.22C667.69 49.39 610.72 37.89 552 37.89c-11.05 0-20 8.95-20 20V473.5c0 11.05 8.95 20 20 20h415c11.01 0 19.95-8.9 20-19.9v-0.7c0-58.73-11.5-115.7-34.19-169.34zM572 453.5V78.39c202.13 10.12 364.71 172.9 374.53 375.11H572z"
          fill="#333333" p-id="2739"></path>
</svg>