<svg width="24" height="24" viewBox="0 0 24 24" fill="none" xmlns="http://www.w3.org/2000/svg">
  <path d="M17.3 6.3l-5-5c-0.4-0.4-1.1-0.4-1.5 0l-5 5c-0.4 0.4-0.4 1.1 0 1.5 0.4 0.4 1.1 0.4 1.5 0l3.2-3.2V15c0 0.6 0.4 1 1 1s1-0.4 1-1V4.6l3.2 3.2c0.2 0.2 0.5 0.3 0.7 0.3s0.5-0.1 0.7-0.3c0.5-0.4 0.5-1 0.2-1.5z" fill="#2196F3"/>
  <path d="M17.3 16.2c-0.4-0.4-1.1-0.4-1.5 0L12.6 19.4V9c0-0.6-0.4-1-1-1s-1 0.4-1 1v10.4l-3.2-3.2c-0.4-0.4-1.1-0.4-1.5 0-0.4 0.4-0.4 1.1 0 1.5l5 5c0.2 0.2 0.5 0.3 0.7 0.3s0.5-0.1 0.7-0.3l5-5c0.4-0.4 0.4-1.1 0-1.5z" fill="#2196F3"/>
</svg>
